<?xml version="1.0" encoding="utf-8"?>
<!-- Generator: Adobe Illustrator 25.0.1, SVG Export Plug-In . SVG Version: 6.00 Build 0)  -->
<svg version="1.1" id="Layer_1" xmlns="http://www.w3.org/2000/svg" xmlns:xlink="http://www.w3.org/1999/xlink" x="0px" y="0px"
	 viewBox="0 0 1293.02 1293.02" style="enable-background:new 0 0 1293.02 1293.02;" xml:space="preserve">
<style type="text/css">
	.st0{fill:#FFFFFF;}
	.st1{stroke:#FFFFFF;stroke-miterlimit:10;}
	.st2{fill:#FFFFFF;stroke:#FFFFFF;stroke-width:4;stroke-miterlimit:10;}
	.st3{stroke:#FFFFFF;stroke-width:26;stroke-miterlimit:10;}
</style>
<rect width="1293.02" height="1293.02"/>
<path class="st0" d="M1100.59,1106.88H212.41c-55.58,0-100.64-45.06-100.64-100.64V490.06c0-55.58,45.06-100.64,100.64-100.64
	h888.18c55.58,0,100.64,45.06,100.64,100.64v516.17C1201.23,1061.82,1156.17,1106.88,1100.59,1106.88z"/>
<path class="st1" d="M1060.73,544.37H244.05c-24.22,0-43.85-19.63-43.85-43.85v-14.18c0-24.22,19.63-43.85,43.85-43.85h816.68
	c24.22,0,43.85,19.63,43.85,43.85v14.18C1104.57,524.74,1084.94,544.37,1060.73,544.37z"/>
<line class="st2" x1="450.84" y1="544.37" x2="450.84" y2="442.5"/>
<line class="st2" x1="660.42" y1="544.37" x2="660.42" y2="442.5"/>
<line class="st2" x1="869.68" y1="544.37" x2="869.68" y2="442.5"/>
<path class="st3" d="M795.81,830.36l-74.34,48.89c-4.55,2.99-10.67,1.73-13.67-2.82L240.72,166.28c-2.99-4.55-1.73-10.67,2.82-13.67
	l74.34-48.89c4.55-2.99,10.67-1.73,13.67,2.82l467.09,710.15C801.63,821.24,800.36,827.36,795.81,830.36z"/>
<path d="M717.25,867.02l85.74,55.41c0.94,0.6,2.15-0.19,1.98-1.29l-18.82-99.71c-0.14-0.9-2.37-1.01-3.16-0.55l-65.59,42.54
	C716.56,863.91,716.44,866.5,717.25,867.02z"/>
</svg>
